<svg xmlns="http://www.w3.org/2000/svg" xmlns:xlink="http://www.w3.org/1999/xlink" width="500" zoomAndPan="magnify" viewBox="0 0 375 374.999991" height="500" preserveAspectRatio="xMidYMid meet" version="1.0"><defs><g/><clipPath id="503ae58464"><path d="M 109.089844 106.011719 L 129.839844 106.011719 L 129.839844 161.25 L 109.089844 161.25 Z M 109.089844 106.011719 " clip-rule="nonzero"/></clipPath><clipPath id="70a56f5091"><path d="M 122.8125 110.679688 L 128.507812 110.679688 L 128.507812 159.066406 L 122.8125 159.066406 Z M 122.8125 110.679688 " clip-rule="nonzero"/></clipPath><clipPath id="ba1328602f"><path d="M 114.316406 131.050781 L 120.0625 131.050781 L 120.0625 159.058594 L 114.316406 159.058594 Z M 114.316406 131.050781 " clip-rule="nonzero"/></clipPath><clipPath id="e8933177fd"><path d="M 248.964844 191.285156 L 264.945312 191.285156 L 264.945312 207.265625 L 248.964844 207.265625 Z M 248.964844 191.285156 " clip-rule="nonzero"/></clipPath><clipPath id="08562afb45"><path d="M 256.953125 191.285156 C 252.539062 191.285156 248.964844 194.863281 248.964844 199.273438 C 248.964844 203.6875 252.539062 207.265625 256.953125 207.265625 C 261.367188 207.265625 264.945312 203.6875 264.945312 199.273438 C 264.945312 194.863281 261.367188 191.285156 256.953125 191.285156 Z M 256.953125 191.285156 " clip-rule="nonzero"/></clipPath><clipPath id="29130eda11"><path d="M 250.84375 192.429688 L 263.460938 192.429688 L 263.460938 205.046875 L 250.84375 205.046875 Z M 250.84375 192.429688 " clip-rule="nonzero"/></clipPath><clipPath id="424b277ec5"><path d="M 257.152344 192.429688 C 253.667969 192.429688 250.84375 195.253906 250.84375 198.738281 C 250.84375 202.222656 253.667969 205.046875 257.152344 205.046875 C 260.636719 205.046875 263.460938 202.222656 263.460938 198.738281 C 263.460938 195.253906 260.636719 192.429688 257.152344 192.429688 Z M 257.152344 192.429688 " clip-rule="nonzero"/></clipPath></defs><g fill="#db4a2b" fill-opacity="1"><g transform="translate(116.104473, 183.284344)"><g><path d="M 35.203125 -68.171875 C 40.085938 -68.171875 44.257812 -67.273438 47.71875 -65.484375 C 51.1875 -63.703125 53.804688 -61.203125 55.578125 -57.984375 C 57.347656 -54.765625 58.234375 -51.023438 58.234375 -46.765625 C 58.234375 -42.503906 57.347656 -38.773438 55.578125 -35.578125 C 53.804688 -32.378906 51.1875 -29.882812 47.71875 -28.09375 C 44.257812 -26.300781 40.085938 -25.40625 35.203125 -25.40625 L 22.34375 -25.40625 L 22.34375 0 L 8.859375 0 L 8.859375 -68.171875 Z M 33.4375 -36.09375 C 40.925781 -36.09375 44.671875 -39.648438 44.671875 -46.765625 C 44.671875 -53.921875 40.925781 -57.5 33.4375 -57.5 L 22.34375 -57.5 L 22.34375 -36.09375 Z M 33.4375 -36.09375 "/></g></g></g><g fill="#db4a2b" fill-opacity="1"><g transform="translate(173.14741, 183.284344)"><g/></g></g><g fill="#db4a2b" fill-opacity="1"><g transform="translate(171.38683, 183.284344)"><g><path d="M 21.359375 0.984375 C 16.722656 0.984375 13.1875 -0.265625 10.75 -2.765625 C 8.3125 -5.273438 7.09375 -9.078125 7.09375 -14.171875 L 7.09375 -72.09375 L 20 -72.09375 L 20 -14.6875 C 20 -11.550781 21.304688 -9.984375 23.921875 -9.984375 C 24.671875 -9.984375 25.460938 -10.109375 26.296875 -10.359375 L 26.953125 -10.171875 L 28.125 -0.234375 C 27.40625 0.140625 26.453125 0.4375 25.265625 0.65625 C 24.085938 0.875 22.785156 0.984375 21.359375 0.984375 Z M 21.359375 0.984375 "/></g></g></g><g fill="#db4a2b" fill-opacity="1"><g transform="translate(195.694899, 183.284344)"><g><path d="M 20.046875 0.984375 C 16.753906 0.984375 13.894531 0.378906 11.46875 -0.828125 C 9.039062 -2.046875 7.175781 -3.828125 5.875 -6.171875 C 4.570312 -8.523438 3.921875 -11.347656 3.921875 -14.640625 C 3.921875 -17.691406 4.570312 -20.25 5.875 -22.3125 C 7.175781 -24.375 9.195312 -26.066406 11.9375 -27.390625 C 14.675781 -28.710938 18.25 -29.734375 22.65625 -30.453125 C 25.738281 -30.953125 28.078125 -31.492188 29.671875 -32.078125 C 31.273438 -32.671875 32.359375 -33.335938 32.921875 -34.078125 C 33.484375 -34.828125 33.765625 -35.78125 33.765625 -36.9375 C 33.765625 -38.582031 33.1875 -39.835938 32.03125 -40.703125 C 30.882812 -41.578125 28.972656 -42.015625 26.296875 -42.015625 C 23.441406 -42.015625 20.722656 -41.375 18.140625 -40.09375 C 15.554688 -38.820312 13.316406 -37.144531 11.421875 -35.0625 L 10.484375 -35.0625 L 5.078125 -43.234375 C 7.691406 -46.117188 10.878906 -48.367188 14.640625 -49.984375 C 18.398438 -51.597656 22.503906 -52.40625 26.953125 -52.40625 C 33.765625 -52.40625 38.691406 -50.957031 41.734375 -48.0625 C 44.773438 -45.175781 46.296875 -41.078125 46.296875 -35.765625 L 46.296875 -13.4375 C 46.296875 -11.132812 47.304688 -9.984375 49.328125 -9.984375 C 50.109375 -9.984375 50.875 -10.125 51.625 -10.40625 L 52.265625 -10.21875 L 53.203125 -1.21875 C 52.492188 -0.75 51.5 -0.363281 50.21875 -0.0625 C 48.945312 0.226562 47.550781 0.375 46.03125 0.375 C 42.945312 0.375 40.539062 -0.210938 38.8125 -1.390625 C 37.09375 -2.578125 35.859375 -4.429688 35.109375 -6.953125 L 34.140625 -7.046875 C 31.617188 -1.691406 26.921875 0.984375 20.046875 0.984375 Z M 24.15625 -8.671875 C 27.132812 -8.671875 29.519531 -9.671875 31.3125 -11.671875 C 33.101562 -13.679688 34 -16.472656 34 -20.046875 L 34 -25.28125 L 33.109375 -25.453125 C 32.328125 -24.835938 31.304688 -24.316406 30.046875 -23.890625 C 28.796875 -23.472656 26.988281 -23.0625 24.625 -22.65625 C 21.820312 -22.195312 19.804688 -21.398438 18.578125 -20.265625 C 17.347656 -19.128906 16.734375 -17.519531 16.734375 -15.4375 C 16.734375 -13.226562 17.382812 -11.546875 18.6875 -10.390625 C 20 -9.242188 21.820312 -8.671875 24.15625 -8.671875 Z M 24.15625 -8.671875 "/></g></g></g><g fill="#db4a2b" fill-opacity="1"><g transform="translate(244.67557, 183.284344)"><g/></g></g><g fill="#db4a2b" fill-opacity="1"><g transform="translate(111.109612, 247.293084)"><g><path d="M 29.984375 0.984375 C 25.003906 0.984375 20.601562 -0.046875 16.78125 -2.109375 C 12.957031 -4.179688 9.972656 -7.222656 7.828125 -11.234375 C 5.679688 -15.242188 4.609375 -20.0625 4.609375 -25.6875 C 4.609375 -31.351562 5.679688 -36.191406 7.828125 -40.203125 C 9.972656 -44.210938 12.941406 -47.25 16.734375 -49.3125 C 20.523438 -51.375 24.863281 -52.40625 29.75 -52.40625 C 40.601562 -52.40625 47.550781 -48.472656 50.59375 -40.609375 L 41.734375 -34.28125 L 40.75 -34.28125 C 39.695312 -36.695312 38.320312 -38.492188 36.625 -39.671875 C 34.9375 -40.859375 32.644531 -41.453125 29.75 -41.453125 C 26.019531 -41.453125 23.113281 -40.160156 21.03125 -37.578125 C 18.945312 -35.003906 17.90625 -31.039062 17.90625 -25.6875 C 17.90625 -20.40625 18.960938 -16.46875 21.078125 -13.875 C 23.191406 -11.28125 26.160156 -9.984375 29.984375 -9.984375 C 32.785156 -9.984375 35.15625 -10.734375 37.09375 -12.234375 C 39.039062 -13.742188 40.429688 -15.914062 41.265625 -18.75 L 42.25 -18.84375 L 51.4375 -13.796875 C 50.125 -9.453125 47.703125 -5.898438 44.171875 -3.140625 C 40.648438 -0.390625 35.921875 0.984375 29.984375 0.984375 Z M 29.984375 0.984375 "/></g></g></g><g fill="#db4a2b" fill-opacity="1"><g transform="translate(158.878308, 247.293084)"><g/></g></g><g fill="#db4a2b" fill-opacity="1"><g transform="translate(176.14588, 247.293084)"><g/></g></g><g fill="#db4a2b" fill-opacity="1"><g transform="translate(193.413452, 247.293084)"><g/></g></g><g fill="#db4a2b" fill-opacity="1"><g transform="translate(210.681027, 247.293084)"><g/></g></g><g fill="#db4a2b" fill-opacity="1"><g transform="translate(227.948597, 247.293084)"><g/></g></g><g fill="#db4a2b" fill-opacity="1"><g transform="translate(245.216167, 247.293084)"><g/></g></g><g fill="#4524b1" fill-opacity="1"><g transform="translate(141.908609, 247.293084)"><g/></g></g><g fill="#4524b1" fill-opacity="1"><g transform="translate(159.186648, 247.293084)"><g><path d="M 50.828125 -22.796875 L 17.765625 -22.796875 C 18.140625 -18.328125 19.414062 -15.070312 21.59375 -13.03125 C 23.769531 -11 26.738281 -9.984375 30.5 -9.984375 C 33.445312 -9.984375 35.835938 -10.535156 37.671875 -11.640625 C 39.503906 -12.742188 40.984375 -14.410156 42.109375 -16.640625 L 43.09375 -16.640625 L 51.671875 -11.140625 C 49.992188 -7.535156 47.457031 -4.613281 44.0625 -2.375 C 40.675781 -0.132812 36.15625 0.984375 30.5 0.984375 C 25.175781 0.984375 20.578125 -0.0234375 16.703125 -2.046875 C 12.835938 -4.066406 9.851562 -7.070312 7.75 -11.0625 C 5.65625 -15.0625 4.609375 -19.9375 4.609375 -25.6875 C 4.609375 -31.53125 5.710938 -36.457031 7.921875 -40.46875 C 10.128906 -44.476562 13.113281 -47.46875 16.875 -49.4375 C 20.632812 -51.414062 24.863281 -52.40625 29.5625 -52.40625 C 36.832031 -52.40625 42.40625 -50.476562 46.28125 -46.625 C 50.15625 -42.769531 52.09375 -37.113281 52.09375 -29.65625 C 52.09375 -26.945312 52 -24.847656 51.8125 -23.359375 Z M 39.734375 -31.15625 C 39.609375 -35.070312 38.695312 -37.921875 37 -39.703125 C 35.300781 -41.492188 32.820312 -42.390625 29.5625 -42.390625 C 23.03125 -42.390625 19.191406 -38.644531 18.046875 -31.15625 Z M 39.734375 -31.15625 "/></g></g></g><g fill="#4524b1" fill-opacity="1"><g transform="translate(209.83833, 247.293084)"><g><path d="M 11.375 21.828125 C 9.164062 21.828125 7.164062 21.65625 5.375 21.3125 C 3.59375 20.96875 2.144531 20.515625 1.03125 19.953125 L 3.078125 9.515625 L 3.921875 9.234375 C 4.691406 9.640625 5.648438 9.960938 6.796875 10.203125 C 7.953125 10.453125 9.140625 10.578125 10.359375 10.578125 C 12.429688 10.578125 14.160156 10.304688 15.546875 9.765625 C 16.929688 9.222656 18.101562 8.320312 19.0625 7.0625 C 20.03125 5.800781 20.890625 4.050781 21.640625 1.8125 L 1.125 -51.4375 L 14.640625 -51.4375 L 27.421875 -15.671875 L 28.53125 -15.671875 L 40.984375 -51.4375 L 54.140625 -51.4375 L 33.484375 3.21875 C 31.835938 7.632812 30.023438 11.1875 28.046875 13.875 C 26.078125 16.5625 23.742188 18.554688 21.046875 19.859375 C 18.359375 21.171875 15.132812 21.828125 11.375 21.828125 Z M 11.375 21.828125 "/></g></g></g><g clip-path="url(#503ae58464)"><path fill="#ffffff" d="M 109.089844 106.011719 L 129.839844 106.011719 L 129.839844 161.289062 L 109.089844 161.289062 Z M 109.089844 106.011719 " fill-opacity="1" fill-rule="nonzero"/></g><g clip-path="url(#70a56f5091)"><path fill="#4524b1" d="M 122.8125 110.679688 L 128.507812 110.679688 L 128.507812 159.074219 L 122.8125 159.074219 Z M 122.8125 110.679688 " fill-opacity="1" fill-rule="nonzero"/></g><g clip-path="url(#ba1328602f)"><path fill="#4524b1" d="M 120.0625 159.058594 L 114.316406 159.058594 L 114.316406 131.058594 L 120.0625 131.058594 Z M 120.0625 159.058594 " fill-opacity="1" fill-rule="nonzero"/></g><g clip-path="url(#e8933177fd)"><g clip-path="url(#08562afb45)"><path fill="#ffffff" d="M 248.964844 191.285156 L 264.945312 191.285156 L 264.945312 207.265625 L 248.964844 207.265625 Z M 248.964844 191.285156 " fill-opacity="1" fill-rule="nonzero"/></g></g><g clip-path="url(#29130eda11)"><g clip-path="url(#424b277ec5)"><path fill="#db4a2b" d="M 250.84375 192.429688 L 263.460938 192.429688 L 263.460938 205.046875 L 250.84375 205.046875 Z M 250.84375 192.429688 " fill-opacity="1" fill-rule="nonzero"/></g></g></svg>