<svg xmlns="http://www.w3.org/2000/svg" xmlns:xlink="http://www.w3.org/1999/xlink" width="500" zoomAndPan="magnify" viewBox="0 0 375 374.999991" height="500" preserveAspectRatio="xMidYMid meet" version="1.0"><defs><g/><clipPath id="7a659432fa"><path d="M 293.078125 160.035156 L 307.480469 160.035156 L 307.480469 174.4375 L 293.078125 174.4375 Z M 293.078125 160.035156 " clip-rule="nonzero"/></clipPath><clipPath id="ba4ac0a968"><path d="M 300.28125 160.035156 C 296.300781 160.035156 293.078125 163.257812 293.078125 167.234375 C 293.078125 171.214844 296.300781 174.4375 300.28125 174.4375 C 304.257812 174.4375 307.480469 171.214844 307.480469 167.234375 C 307.480469 163.257812 304.257812 160.035156 300.28125 160.035156 Z M 300.28125 160.035156 " clip-rule="nonzero"/></clipPath><clipPath id="acdb1bbbbc"><path d="M 72.496094 152.523438 L 77.121094 152.523438 L 77.121094 203.3125 L 72.496094 203.3125 Z M 72.496094 152.523438 " clip-rule="nonzero"/></clipPath><clipPath id="64c4f966e1"><path d="M 65.835938 167.417969 L 70.199219 167.417969 L 70.199219 203.3125 L 65.835938 203.3125 Z M 65.835938 167.417969 " clip-rule="nonzero"/></clipPath><clipPath id="dacb8f7e91"><path d="M 294.847656 161.984375 L 305.710938 161.984375 L 305.710938 172.847656 L 294.847656 172.847656 Z M 294.847656 161.984375 " clip-rule="nonzero"/></clipPath><clipPath id="a7dbb8ec9e"><path d="M 300.28125 161.984375 C 297.28125 161.984375 294.847656 164.417969 294.847656 167.417969 C 294.847656 170.417969 297.28125 172.847656 300.28125 172.847656 C 303.28125 172.847656 305.710938 170.417969 305.710938 167.417969 C 305.710938 164.417969 303.28125 161.984375 300.28125 161.984375 Z M 300.28125 161.984375 " clip-rule="nonzero"/></clipPath></defs><g fill="#4524b1" fill-opacity="1"><g transform="translate(225.504628, 204.01112)"><g><path d="M 22.109375 0.8125 C 18.054688 0.8125 14.535156 -0.0390625 11.546875 -1.75 C 8.566406 -3.457031 6.253906 -5.78125 4.609375 -8.71875 C 2.972656 -11.664062 2.15625 -15.023438 2.15625 -18.796875 C 2.15625 -21.222656 2.523438 -23.625 3.265625 -26 C 4.003906 -28.382812 5.171875 -30.566406 6.765625 -32.546875 C 8.367188 -34.523438 10.40625 -36.097656 12.875 -37.265625 C 15.34375 -38.429688 18.304688 -39.015625 21.765625 -39.015625 C 24.285156 -39.015625 26.722656 -38.644531 29.078125 -37.90625 C 31.429688 -37.164062 33.539062 -35.984375 35.40625 -34.359375 C 37.269531 -32.742188 38.753906 -30.644531 39.859375 -28.0625 C 40.960938 -25.476562 41.515625 -22.347656 41.515625 -18.671875 L 41.515625 -16.71875 L 14.015625 -16.71875 C 14.328125 -14.644531 14.976562 -13.003906 15.96875 -11.796875 C 16.78125 -10.804688 17.757812 -10.070312 18.90625 -9.59375 C 20.050781 -9.125 21.316406 -8.890625 22.703125 -8.890625 C 24.410156 -8.890625 25.859375 -9.316406 27.046875 -10.171875 C 28.242188 -11.023438 29.066406 -12.035156 29.515625 -13.203125 L 40.90625 -13.203125 C 40.1875 -10.691406 39.039062 -8.367188 37.46875 -6.234375 C 35.894531 -4.097656 33.835938 -2.390625 31.296875 -1.109375 C 28.765625 0.171875 25.703125 0.8125 22.109375 0.8125 Z M 14.359375 -24.734375 L 30.0625 -24.734375 C 29.96875 -25.179688 29.796875 -25.71875 29.546875 -26.34375 C 29.304688 -26.976562 28.867188 -27.585938 28.234375 -28.171875 C 27.429688 -28.972656 26.507812 -29.539062 25.46875 -29.875 C 24.4375 -30.21875 23.335938 -30.390625 22.171875 -30.390625 C 21.046875 -30.390625 19.953125 -30.21875 18.890625 -29.875 C 17.835938 -29.539062 16.910156 -28.972656 16.109375 -28.171875 C 15.472656 -27.535156 15.039062 -26.914062 14.8125 -26.3125 C 14.59375 -25.707031 14.441406 -25.179688 14.359375 -24.734375 Z M 14.359375 -24.734375 "/></g></g></g><g fill="#4524b1" fill-opacity="1"><g transform="translate(269.17591, 204.01112)"><g><path d="M 11.453125 13.203125 L 4.65625 13.203125 L 4.65625 3.96875 L 9.234375 3.96875 C 10.171875 3.96875 11.03125 3.8125 11.8125 3.5 C 12.601562 3.1875 13.226562 2.46875 13.6875 1.34375 L 14.015625 0.546875 L 0.46875 -38.203125 L 12.609375 -38.203125 L 19.8125 -11.125 L 26.015625 -38.203125 L 38.203125 -38.203125 L 24.671875 2.421875 C 23.410156 6.242188 21.8125 8.992188 19.875 10.671875 C 17.945312 12.359375 15.140625 13.203125 11.453125 13.203125 Z M 11.453125 13.203125 "/></g></g></g><g fill="#4524b1" fill-opacity="1"><g transform="translate(308.004609, 204.01112)"><g/></g></g><g clip-path="url(#7a659432fa)"><g clip-path="url(#ba4ac0a968)"><path fill="#ffffff" d="M 293.078125 160.035156 L 307.480469 160.035156 L 307.480469 174.4375 L 293.078125 174.4375 Z M 293.078125 160.035156 " fill-opacity="1" fill-rule="nonzero"/></g></g><g fill="#db4a2b" fill-opacity="1"><g transform="translate(75.693369, 203.193913)"><g><path d="M 16.109375 0 L 4.046875 0 L 4.046875 -51.421875 L 28.296875 -51.421875 C 31.441406 -51.421875 34.238281 -50.898438 36.6875 -49.859375 C 39.132812 -48.828125 41.054688 -47.175781 42.453125 -44.90625 C 43.847656 -42.644531 44.546875 -39.648438 44.546875 -35.921875 C 44.546875 -32.546875 43.847656 -29.65625 42.453125 -27.25 C 41.054688 -24.851562 39.132812 -23.015625 36.6875 -21.734375 C 34.238281 -20.453125 31.441406 -19.8125 28.296875 -19.8125 L 16.109375 -19.8125 Z M 16.109375 -40.640625 L 16.109375 -30.265625 L 26.625 -30.265625 C 30.613281 -30.265625 32.609375 -32.015625 32.609375 -35.515625 C 32.609375 -38.929688 30.613281 -40.640625 26.625 -40.640625 Z M 16.109375 -40.640625 "/></g></g></g><g fill="#db4a2b" fill-opacity="1"><g transform="translate(121.723446, 203.193913)"><g><path d="M 19.875 0 L 12.265625 0 C 9.484375 0 7.328125 -0.660156 5.796875 -1.984375 C 4.265625 -3.304688 3.5 -5.179688 3.5 -7.609375 L 3.5 -51.421875 L 14.828125 -51.421875 L 14.828125 -11.53125 C 14.828125 -10.488281 15.082031 -9.832031 15.59375 -9.5625 C 16.113281 -9.300781 16.597656 -9.171875 17.046875 -9.171875 L 19.875 -9.171875 Z M 19.875 0 "/></g></g></g><g fill="#db4a2b" fill-opacity="1"><g transform="translate(143.154722, 203.193913)"><g><path d="M 14.765625 0.8125 C 12.472656 0.8125 10.378906 0.382812 8.484375 -0.46875 C 6.597656 -1.320312 5.082031 -2.601562 3.9375 -4.3125 C 2.789062 -6.019531 2.21875 -8.15625 2.21875 -10.71875 C 2.21875 -13.007812 2.664062 -14.894531 3.5625 -16.375 C 4.46875 -17.851562 5.617188 -19.046875 7.015625 -19.953125 C 8.359375 -20.847656 9.835938 -21.507812 11.453125 -21.9375 C 13.066406 -22.363281 14.59375 -22.710938 16.03125 -22.984375 L 25.953125 -24.734375 C 25.816406 -26.660156 25.296875 -28.144531 24.390625 -29.1875 C 23.535156 -30.082031 22.253906 -30.53125 20.546875 -30.53125 C 19.242188 -30.53125 18.039062 -30.09375 16.9375 -29.21875 C 15.84375 -28.34375 15.160156 -27.09375 14.890625 -25.46875 L 3.640625 -25.46875 C 4.128906 -28.664062 5.226562 -31.257812 6.9375 -33.25 C 8.644531 -35.25 10.710938 -36.707031 13.140625 -37.625 C 15.566406 -38.550781 18.0625 -39.015625 20.625 -39.015625 C 22.863281 -39.015625 25.015625 -38.710938 27.078125 -38.109375 C 29.148438 -37.503906 30.953125 -36.550781 32.484375 -35.25 C 34.054688 -33.894531 35.164062 -32.34375 35.8125 -30.59375 C 36.46875 -28.84375 36.863281 -26.921875 37 -24.828125 C 37.132812 -22.742188 37.203125 -20.507812 37.203125 -18.125 L 37.203125 0 L 25.875 0 L 25.875 -4.65625 C 25.25 -3.164062 24.351562 -2.019531 23.1875 -1.21875 C 22.0625 -0.445312 20.769531 0.0820312 19.3125 0.375 C 17.851562 0.664062 16.335938 0.8125 14.765625 0.8125 Z M 18.0625 -7.75 C 19.40625 -7.75 20.773438 -8.0625 22.171875 -8.6875 C 23.742188 -9.40625 24.785156 -10.40625 25.296875 -11.6875 C 25.816406 -12.96875 26.097656 -14.644531 26.140625 -16.71875 L 19.203125 -15.359375 C 17.941406 -15.140625 16.972656 -14.894531 16.296875 -14.625 C 15.628906 -14.351562 15.050781 -13.992188 14.5625 -13.546875 C 14.238281 -13.234375 13.988281 -12.882812 13.8125 -12.5 C 13.632812 -12.113281 13.546875 -11.65625 13.546875 -11.125 C 13.546875 -9.90625 13.992188 -9.035156 14.890625 -8.515625 C 15.785156 -8.003906 16.84375 -7.75 18.0625 -7.75 Z M 18.0625 -7.75 "/></g></g></g><g fill="#db4a2b" fill-opacity="1"><g transform="translate(183.6585, 203.193913)"><g><path d="M 22.03125 0.8125 C 18.082031 0.8125 14.613281 -0.015625 11.625 -1.671875 C 8.632812 -3.335938 6.304688 -5.6875 4.640625 -8.71875 C 2.984375 -11.757812 2.15625 -15.300781 2.15625 -19.34375 C 2.15625 -23.25 2.972656 -26.671875 4.609375 -29.609375 C 6.253906 -32.554688 8.566406 -34.859375 11.546875 -36.515625 C 14.535156 -38.179688 18.03125 -39.015625 22.03125 -39.015625 C 26.84375 -39.015625 30.921875 -37.789062 34.265625 -35.34375 C 37.609375 -32.894531 39.773438 -29.601562 40.765625 -25.46875 L 28.375 -25.46875 C 27.382812 -28.53125 25.269531 -30.0625 22.03125 -30.0625 C 19.519531 -30.0625 17.519531 -29.101562 16.03125 -27.1875 C 14.550781 -25.28125 13.8125 -22.664062 13.8125 -19.34375 C 13.8125 -15.882812 14.550781 -13.164062 16.03125 -11.1875 C 17.519531 -9.207031 19.519531 -8.21875 22.03125 -8.21875 C 23.96875 -8.21875 25.441406 -8.65625 26.453125 -9.53125 C 27.460938 -10.40625 28.144531 -11.628906 28.5 -13.203125 L 40.84375 -13.203125 C 39.894531 -8.804688 37.722656 -5.367188 34.328125 -2.890625 C 30.941406 -0.421875 26.84375 0.8125 22.03125 0.8125 Z M 22.03125 0.8125 "/></g></g></g><g clip-path="url(#acdb1bbbbc)"><path fill="#4524b1" d="M 72.496094 152.523438 L 77.121094 152.523438 L 77.121094 203.304688 L 72.496094 203.304688 Z M 72.496094 152.523438 " fill-opacity="1" fill-rule="nonzero"/></g><g clip-path="url(#64c4f966e1)"><path fill="#4524b1" d="M 65.835938 167.417969 L 70.199219 167.417969 L 70.199219 203.316406 L 65.835938 203.316406 Z M 65.835938 167.417969 " fill-opacity="1" fill-rule="nonzero"/></g><g clip-path="url(#dacb8f7e91)"><g clip-path="url(#a7dbb8ec9e)"><path fill="#db4a2b" d="M 294.847656 161.984375 L 305.710938 161.984375 L 305.710938 172.847656 L 294.847656 172.847656 Z M 294.847656 161.984375 " fill-opacity="1" fill-rule="nonzero"/></g></g></svg>