<svg width="209" height="218" viewBox="0 0 209 218" fill="none" xmlns="http://www.w3.org/2000/svg">
<g clip-path="url(#clip0_12_83)">
<path d="M56.7435 12.4832C63.2539 12.4832 68.8164 13.6811 73.431 16.0665C78.056 18.4415 81.5456 21.7748 83.9101 26.0665C86.2695 30.3582 87.4518 35.3477 87.4518 41.0248C87.4518 46.7071 86.2695 51.6811 83.9101 55.9415C81.5456 60.2071 78.056 63.5352 73.431 65.9207C68.8164 68.3113 63.2539 69.504 56.7435 69.504H39.5976V103.379H21.6185V12.4832H56.7435ZM54.3893 55.254C64.3737 55.254 69.3685 50.5144 69.3685 41.0248C69.3685 31.4832 64.3737 26.7123 54.3893 26.7123H39.5976V55.254H54.3893Z" fill="#DB4A2B"/>
<path d="M111.995 104.692C105.813 104.692 101.099 103.025 97.8491 99.6917C94.5991 96.3479 92.9741 91.275 92.9741 84.4833V7.25415H110.182V83.7958C110.182 87.9781 111.922 90.0667 115.412 90.0667C116.412 90.0667 117.464 89.9 118.578 89.5667L119.453 89.8167L121.016 103.067C120.057 103.567 118.787 103.962 117.203 104.254C115.63 104.546 113.896 104.692 111.995 104.692Z" fill="#DB4A2B"/>
<path d="M142.656 104.692C138.265 104.692 134.453 103.884 131.218 102.275C127.979 100.65 125.494 98.275 123.76 95.15C122.02 92.0146 121.156 88.2489 121.156 83.8583C121.156 79.7906 122.02 76.3792 123.76 73.6292C125.494 70.8792 128.187 68.6239 131.843 66.8583C135.494 65.0979 140.26 63.7333 146.135 62.775C150.244 62.1083 153.364 61.3896 155.489 60.6083C157.624 59.8167 159.072 58.9312 159.822 57.9417C160.572 56.9417 160.947 55.6708 160.947 54.1292C160.947 51.9364 160.177 50.2646 158.635 49.1083C157.104 47.9417 154.557 47.3583 150.989 47.3583C147.182 47.3583 143.557 48.2125 140.114 49.9208C136.666 51.6187 133.682 53.8531 131.156 56.6292H129.906L122.697 45.7333C126.182 41.8896 130.432 38.8896 135.447 36.7333C140.458 34.5823 145.932 33.5042 151.864 33.5042C160.947 33.5042 167.515 35.4364 171.572 39.2958C175.624 43.1448 177.656 48.6083 177.656 55.6917V85.4625C177.656 88.5354 178.999 90.0667 181.697 90.0667C182.739 90.0667 183.76 89.8792 184.76 89.5042L185.614 89.7542L186.864 101.754C185.916 102.379 184.593 102.895 182.885 103.296C181.187 103.681 179.328 103.879 177.302 103.879C173.187 103.879 169.979 103.098 167.677 101.525C165.385 99.9417 163.739 97.4729 162.739 94.1083L161.447 93.9833C158.083 101.124 151.822 104.692 142.656 104.692ZM148.135 91.8167C152.104 91.8167 155.286 90.4833 157.677 87.8167C160.062 85.1396 161.26 81.4156 161.26 76.65V69.6708L160.072 69.4417C159.031 70.2646 157.666 70.9573 155.989 71.525C154.322 72.0823 151.911 72.6292 148.76 73.1708C145.02 73.7854 142.333 74.8479 140.697 76.3583C139.057 77.8739 138.239 80.0198 138.239 82.7958C138.239 85.7437 139.104 87.9833 140.843 89.525C142.593 91.0562 145.02 91.8167 148.135 91.8167Z" fill="#DB4A2B"/>
<path d="M43.1253 190.037C36.4847 190.037 30.6149 188.662 25.5212 185.912C20.4222 183.151 16.443 179.094 13.5837 173.745C10.7191 168.401 9.29199 161.974 9.29199 154.474C9.29199 146.922 10.7191 140.469 13.5837 135.12C16.443 129.776 20.4014 125.724 25.4587 122.974C30.5107 120.224 36.2972 118.849 42.8128 118.849C57.2816 118.849 66.5472 124.094 70.6045 134.578L58.792 143.016H57.4795C56.0732 139.797 54.2399 137.401 51.9795 135.828C49.7295 134.245 46.6722 133.453 42.8128 133.453C37.8389 133.453 33.9639 135.177 31.1878 138.62C28.4066 142.052 27.0212 147.339 27.0212 154.474C27.0212 161.516 28.4274 166.766 31.2503 170.224C34.068 173.682 38.0264 175.412 43.1253 175.412C46.8597 175.412 50.0212 174.412 52.6045 172.412C55.1982 170.401 57.0524 167.505 58.167 163.724L59.4795 163.599L71.7295 170.328C69.9795 176.12 66.7503 180.86 62.042 184.537C57.3441 188.203 51.042 190.037 43.1253 190.037Z" fill="#DB4A2B"/>
<path d="M135.02 158.328H90.9364C91.4364 164.287 93.1343 168.63 96.0405 171.349C98.9416 174.057 102.9 175.412 107.916 175.412C111.843 175.412 115.03 174.677 117.478 173.203C119.921 171.735 121.895 169.511 123.395 166.537H124.707L136.145 173.87C133.905 178.677 130.525 182.573 125.999 185.557C121.483 188.547 115.457 190.037 107.916 190.037C100.817 190.037 94.6864 188.693 89.5197 185.995C84.3635 183.302 80.3843 179.297 77.5822 173.974C74.7905 168.641 73.3947 162.141 73.3947 154.474C73.3947 146.682 74.8635 140.115 77.8114 134.766C80.7541 129.422 84.7333 125.432 89.7489 122.807C94.7593 120.172 100.4 118.849 106.666 118.849C116.358 118.849 123.791 121.422 128.957 126.557C134.124 131.698 136.707 139.24 136.707 149.182C136.707 152.797 136.582 155.594 136.332 157.578L135.02 158.328ZM120.228 147.182C120.061 141.964 118.843 138.162 116.582 135.787C114.317 133.401 111.009 132.203 106.666 132.203C97.9572 132.203 92.8374 137.198 91.3114 147.182H120.228Z" fill="#4524B1"/>
<path d="M149.951 217.828C147.003 217.828 144.337 217.599 141.951 217.141C139.576 216.682 137.644 216.078 136.159 215.328L138.889 201.411L140.014 201.036C141.04 201.578 142.316 202.005 143.847 202.328C145.389 202.661 146.972 202.828 148.597 202.828C151.357 202.828 153.665 202.464 155.514 201.745C157.357 201.021 158.92 199.818 160.201 198.141C161.493 196.458 162.639 194.125 163.639 191.141L136.284 120.141H154.305L171.347 167.828H172.826L189.43 120.141H206.972L179.43 193.016C177.232 198.901 174.816 203.641 172.18 207.224C169.555 210.807 166.441 213.464 162.847 215.203C159.264 216.953 154.962 217.828 149.951 217.828Z" fill="#4524B1"/>
<mask id="mask0_12_83" style="mask-type:luminance" maskUnits="userSpaceOnUse" x="18" y="6" width="9" height="66">
<path d="M18.75 6.57275H26.3438V71.0884H18.75V6.57275Z" fill="white"/>
</mask>
<g mask="url(#mask0_12_83)">
<path d="M18.75 6.57275H26.3438V71.0988H18.75V6.57275Z" fill="#4524B1"/>
</g>
<mask id="mask1_12_83" style="mask-type:luminance" maskUnits="userSpaceOnUse" x="7" y="33" width="9" height="39">
<path d="M7.42188 33.7344H15.0833V71.0781H7.42188V33.7344Z" fill="white"/>
</mask>
<g mask="url(#mask1_12_83)">
<path d="M15.0833 71.0782H7.42188V33.7449H15.0833V71.0782Z" fill="#4524B1"/>
</g>
<mask id="mask2_12_83" style="mask-type:luminance" maskUnits="userSpaceOnUse" x="186" y="114" width="23" height="22">
<path d="M186.953 114.047H208.26V135.354H186.953V114.047Z" fill="white"/>
</mask>
<g mask="url(#mask2_12_83)">
<mask id="mask3_12_83" style="mask-type:luminance" maskUnits="userSpaceOnUse" x="186" y="114" width="23" height="22">
<path d="M197.604 114.047C191.719 114.047 186.953 118.818 186.953 124.698C186.953 130.583 191.719 135.354 197.604 135.354C203.49 135.354 208.26 130.583 208.26 124.698C208.26 118.818 203.49 114.047 197.604 114.047Z" fill="white"/>
</mask>
<g mask="url(#mask3_12_83)">
<path d="M186.953 114.047H208.26V135.354H186.953V114.047Z" fill="white"/>
</g>
</g>
<mask id="mask4_12_83" style="mask-type:luminance" maskUnits="userSpaceOnUse" x="189" y="115" width="18" height="18">
<path d="M189.458 115.573H206.281V132.396H189.458V115.573Z" fill="white"/>
</mask>
<g mask="url(#mask4_12_83)">
<mask id="mask5_12_83" style="mask-type:luminance" maskUnits="userSpaceOnUse" x="189" y="115" width="18" height="18">
<path d="M197.87 115.573C193.224 115.573 189.458 119.338 189.458 123.984C189.458 128.63 193.224 132.396 197.87 132.396C202.516 132.396 206.281 128.63 206.281 123.984C206.281 119.338 202.516 115.573 197.87 115.573Z" fill="white"/>
</mask>
<g mask="url(#mask5_12_83)">
<path d="M189.458 115.573H206.281V132.396H189.458V115.573Z" fill="#DB4A2B"/>
</g>
</g>
</g>
<defs>
<clipPath id="clip0_12_83">
<rect width="208.547" height="217.651" fill="white" transform="translate(0.453125 0.348877)"/>
</clipPath>
</defs>
</svg>
