<svg width="323" height="88" viewBox="0 0 323 88" fill="none" xmlns="http://www.w3.org/2000/svg">
<g clip-path="url(#clip0_12_27)">
<path d="M243.152 71.0981C237.746 71.0981 233.053 69.9626 229.069 67.6814C225.095 65.4054 222.011 62.3064 219.819 58.3897C217.636 54.4626 216.548 49.9835 216.548 44.9522C216.548 41.7179 217.037 38.5147 218.027 35.3481C219.011 32.171 220.569 29.2595 222.694 26.6189C224.829 23.9835 227.548 21.8845 230.839 20.3272C234.131 18.7751 238.079 17.9939 242.694 17.9939C246.053 17.9939 249.303 18.4887 252.444 19.4731C255.579 20.4626 258.392 22.0356 260.881 24.2022C263.366 26.3585 265.345 29.1554 266.819 32.5981C268.287 36.046 269.027 40.2179 269.027 45.1189V47.7231H232.36C232.777 50.4887 233.642 52.6762 234.964 54.2856C236.048 55.6085 237.35 56.5876 238.881 57.2231C240.407 57.8481 242.095 58.1606 243.944 58.1606C246.22 58.1606 248.152 57.5929 249.735 56.4522C251.329 55.3168 252.428 53.9679 253.027 52.4106H268.214C267.256 55.7595 265.725 58.8585 263.631 61.7022C261.532 64.5512 258.787 66.8272 255.402 68.5356C252.027 70.2439 247.944 71.0981 243.152 71.0981ZM232.819 37.0356H253.756C253.631 36.4418 253.402 35.7231 253.069 34.8897C252.746 34.046 252.162 33.2335 251.319 32.4522C250.246 31.3845 249.017 30.6293 247.631 30.1814C246.256 29.7231 244.787 29.4939 243.235 29.4939C241.735 29.4939 240.277 29.7231 238.86 30.1814C237.454 30.6293 236.22 31.3845 235.152 32.4522C234.303 33.3012 233.725 34.1293 233.423 34.9314C233.131 35.7387 232.928 36.4418 232.819 37.0356Z" fill="#4524B1"/>
<path d="M287.172 87.6191H278.11V75.3066H284.214C285.464 75.3066 286.61 75.0982 287.651 74.6816C288.703 74.2649 289.537 73.3066 290.151 71.8066L290.589 70.7441L272.526 19.0774H288.714L298.318 55.1816L306.589 19.0774H322.839L304.797 73.2441C303.115 78.3378 300.985 82.0045 298.401 84.2441C295.828 86.4941 292.089 87.6191 287.172 87.6191Z" fill="#4524B1"/>
<mask id="mask0_12_27" style="mask-type:luminance" maskUnits="userSpaceOnUse" x="303" y="11" width="20" height="20">
<path d="M303.771 11.3801H322.974V30.5833H303.771V11.3801Z" fill="white"/>
</mask>
<g mask="url(#mask0_12_27)">
<mask id="mask1_12_27" style="mask-type:luminance" maskUnits="userSpaceOnUse" x="303" y="11" width="20" height="20">
<path d="M313.375 11.3801C308.068 11.3801 303.771 15.677 303.771 20.9791C303.771 26.2864 308.068 30.5833 313.375 30.5833C318.677 30.5833 322.974 26.2864 322.974 20.9791C322.974 15.677 318.677 11.3801 313.375 11.3801Z" fill="white"/>
</mask>
<g mask="url(#mask1_12_27)">
<path d="M303.771 11.3801H322.974V30.5833H303.771V11.3801Z" fill="white"/>
</g>
</g>
<path d="M35.4036 68.9253H19.3203V0.362793H51.6536C55.8464 0.362793 59.5755 1.06071 62.8411 2.44613C66.1016 3.82113 68.6641 6.02425 70.5286 9.05029C72.388 12.0659 73.3203 16.0607 73.3203 21.0295C73.3203 25.5295 72.388 29.3836 70.5286 32.592C68.6641 35.7899 66.1016 38.2378 62.8411 39.9461C59.5755 41.6545 55.8464 42.5086 51.6536 42.5086H35.4036V68.9253ZM35.4036 14.7378V28.5711H49.4245C54.7422 28.5711 57.4036 26.2378 57.4036 21.5711C57.4036 17.019 54.7422 14.7378 49.4245 14.7378H35.4036Z" fill="#DB4A2B"/>
<path d="M101.798 68.9253H91.6521C87.9438 68.9253 85.0688 68.0451 83.0271 66.2795C80.9854 64.519 79.9646 62.019 79.9646 58.7795V0.362793H95.0688V53.5503C95.0688 54.9409 95.4073 55.8159 96.0896 56.1753C96.7823 56.5243 97.4281 56.6961 98.0271 56.6961H101.798V68.9253Z" fill="#DB4A2B"/>
<path d="M123.56 70.0085C120.503 70.0085 117.712 69.4355 115.185 68.3001C112.67 67.1647 110.649 65.4564 109.123 63.1751C107.592 60.8991 106.831 58.0501 106.831 54.6335C106.831 51.5814 107.425 49.0658 108.623 47.0918C109.831 45.123 111.363 43.5293 113.227 42.321C115.019 41.1283 116.988 40.248 119.144 39.6751C121.295 39.1074 123.331 38.6439 125.248 38.2793L138.477 35.946C138.295 33.3783 137.602 31.3991 136.394 30.0085C135.253 28.8158 133.545 28.2168 131.269 28.2168C129.529 28.2168 127.925 28.8001 126.456 29.9668C124.998 31.1335 124.087 32.8001 123.727 34.9668H108.727C109.378 30.7064 110.842 27.248 113.123 24.5918C115.399 21.9251 118.154 19.9824 121.394 18.7585C124.628 17.5241 127.956 16.9043 131.373 16.9043C134.357 16.9043 137.227 17.3105 139.977 18.1126C142.738 18.9199 145.144 20.1908 147.185 21.9251C149.279 23.7324 150.758 25.8001 151.623 28.1335C152.498 30.4668 153.024 33.0293 153.206 35.821C153.383 38.6022 153.477 41.5814 153.477 44.7585V68.9251H138.373V62.7168C137.54 64.7064 136.342 66.2324 134.79 67.3001C133.29 68.3314 131.566 69.0345 129.623 69.4251C127.675 69.8105 125.654 70.0085 123.56 70.0085ZM127.956 58.5918C129.748 58.5918 131.571 58.1751 133.435 57.3418C135.529 56.3835 136.92 55.0501 137.602 53.3418C138.295 51.6335 138.67 49.3991 138.727 46.6335L129.477 48.446C127.795 48.7376 126.503 49.0658 125.602 49.4251C124.712 49.7897 123.941 50.2689 123.29 50.8626C122.857 51.2793 122.524 51.748 122.29 52.2585C122.05 52.7741 121.935 53.3835 121.935 54.0918C121.935 55.7168 122.529 56.8783 123.727 57.571C124.92 58.2533 126.331 58.5918 127.956 58.5918Z" fill="#DB4A2B"/>
<path d="M187.253 70.0085C181.987 70.0085 177.362 68.9043 173.378 66.696C169.388 64.4772 166.284 61.3418 164.065 57.3001C161.857 53.248 160.753 48.5241 160.753 43.1335C160.753 37.9251 161.842 33.3626 164.024 29.446C166.217 25.5189 169.3 22.446 173.274 20.2376C177.258 18.0189 181.92 16.9043 187.253 16.9043C193.67 16.9043 199.107 18.5397 203.565 21.8001C208.024 25.0658 210.909 29.4564 212.232 34.9668H195.711C194.388 30.8835 191.571 28.8418 187.253 28.8418C183.904 28.8418 181.237 30.123 179.253 32.6751C177.279 35.2168 176.295 38.7064 176.295 43.1335C176.295 47.748 177.279 51.373 179.253 54.0085C181.237 56.6491 183.904 57.9668 187.253 57.9668C189.836 57.9668 191.8 57.3835 193.149 56.2168C194.493 55.0501 195.404 53.4199 195.878 51.321H212.336C211.071 57.1855 208.175 61.7689 203.649 65.071C199.133 68.3626 193.67 70.0085 187.253 70.0085Z" fill="#DB4A2B"/>
<mask id="mask2_12_27" style="mask-type:luminance" maskUnits="userSpaceOnUse" x="9" y="1" width="7" height="69">
<path d="M9.66145 1.3645H15.8281V69.0833H9.66145V1.3645Z" fill="white"/>
</mask>
<g mask="url(#mask2_12_27)">
<path d="M9.66145 1.3645H15.8281V69.0728H9.66145V1.3645Z" fill="#4524B1"/>
</g>
<mask id="mask3_12_27" style="mask-type:luminance" maskUnits="userSpaceOnUse" x="0" y="21" width="7" height="49">
<path d="M0.78125 21.2239H6.59896V69.0833H0.78125V21.2239Z" fill="white"/>
</mask>
<g mask="url(#mask3_12_27)">
<path d="M0.78125 21.2239H6.59896V69.0885H0.78125V21.2239Z" fill="#4524B1"/>
</g>
<mask id="mask4_12_27" style="mask-type:luminance" maskUnits="userSpaceOnUse" x="306" y="13" width="15" height="16">
<path d="M306.13 13.9792H320.615V28.4636H306.13V13.9792Z" fill="white"/>
</mask>
<g mask="url(#mask4_12_27)">
<mask id="mask5_12_27" style="mask-type:luminance" maskUnits="userSpaceOnUse" x="306" y="13" width="15" height="16">
<path d="M313.375 13.9792C309.375 13.9792 306.13 17.224 306.13 21.224C306.13 25.224 309.375 28.4636 313.375 28.4636C317.375 28.4636 320.615 25.224 320.615 21.224C320.615 17.224 317.375 13.9792 313.375 13.9792Z" fill="white"/>
</mask>
<g mask="url(#mask5_12_27)">
<path d="M306.13 13.9792H320.615V28.4636H306.13V13.9792Z" fill="#DB4A2B"/>
</g>
</g>
</g>
<defs>
<clipPath id="clip0_12_27">
<rect width="323" height="88" fill="white"/>
</clipPath>
</defs>
</svg>
